# Blender v3.1.2 OBJ File: 'char_mega_spike.blend'
# www.blender.org
mtllib silence_debris.mtl
o Cube_Cube.001
v -0.159793 -0.279071 -0.160613
v -0.159793 1.669799 -0.160613
v -0.159793 -0.279071 0.160613
v -0.159793 1.669799 0.160613
v 0.159793 -0.279071 -0.160613
v 0.159793 1.669799 -0.160613
v 0.159793 -0.279071 0.160613
v 0.159793 1.669799 0.160613
vt 0.375000 0.000000
vt 0.375000 0.250000
vt 0.625000 0.250000
vt 0.625000 0.000000
vt 0.375000 0.500000
vt 0.625000 0.500000
vt 0.375000 0.750000
vt 0.625000 0.750000
vt 0.375000 1.000000
vt 0.625000 1.000000
vt 0.125000 0.500000
vt 0.125000 0.750000
vt 0.875000 0.750000
vt 0.875000 0.500000
vn -1.0000 0.0000 0.0000
vn 0.0000 0.0000 1.0000
vn 1.0000 0.0000 0.0000
vn 0.0000 0.0000 -1.0000
vn 0.0000 -1.0000 0.0000
vn 0.0000 1.0000 0.0000
usemtl Material.001
s off
f 1/1/1 3/2/1 4/3/1 2/4/1
f 3/2/2 7/5/2 8/6/2 4/3/2
f 7/5/3 5/7/3 6/8/3 8/6/3
f 5/7/4 1/9/4 2/10/4 6/8/4
f 3/11/5 1/12/5 5/7/5 7/5/5
f 8/6/6 6/8/6 2/13/6 4/14/6
o Cube.001_Cube.002
v -0.009816 -0.322684 -0.834359
v -0.009816 0.850687 -0.834359
v -0.226296 -0.322684 -0.597035
v -0.226296 0.850687 -0.597035
v 0.226296 -0.322684 -0.618983
v 0.226296 0.850687 -0.618983
v 0.009816 -0.322684 -0.381660
v 0.009816 0.850687 -0.381660
vt 0.375000 0.000000
vt 0.375000 0.250000
vt 0.625000 0.250000
vt 0.625000 0.000000
vt 0.375000 0.500000
vt 0.625000 0.500000
vt 0.375000 0.750000
vt 0.625000 0.750000
vt 0.375000 1.000000
vt 0.625000 1.000000
vt 0.125000 0.500000
vt 0.125000 0.750000
vt 0.875000 0.750000
vt 0.875000 0.500000
vn -0.7388 0.0000 -0.6739
vn -0.6739 0.0000 0.7388
vn 0.7388 0.0000 0.6739
vn 0.6739 0.0000 -0.7388
vn 0.0000 -1.0000 0.0000
vn 0.0000 1.0000 0.0000
usemtl Material.004
s off
f 9/15/7 11/16/7 12/17/7 10/18/7
f 11/16/8 15/19/8 16/20/8 12/17/8
f 15/19/9 13/21/9 14/22/9 16/20/9
f 13/21/10 9/23/10 10/24/10 14/22/10
f 11/25/11 9/26/11 13/21/11 15/19/11
f 16/20/12 14/22/12 10/27/12 12/28/12
o Cube.002_Cube.003
v -0.735548 -0.355243 -0.430638
v -0.735548 0.369571 -0.430638
v -1.056188 -0.355243 -0.411234
v -1.056188 0.369571 -0.411234
v -0.716243 -0.355243 -0.111635
v -0.716243 0.369571 -0.111635
v -1.036882 -0.355243 -0.092230
v -1.036882 0.369571 -0.092230
vt 0.375000 0.000000
vt 0.375000 0.250000
vt 0.625000 0.250000
vt 0.625000 0.000000
vt 0.375000 0.500000
vt 0.625000 0.500000
vt 0.375000 0.750000
vt 0.625000 0.750000
vt 0.375000 1.000000
vt 0.625000 1.000000
vt 0.125000 0.500000
vt 0.125000 0.750000
vt 0.875000 0.750000
vt 0.875000 0.500000
vn -0.0604 0.0000 -0.9982
vn -0.9982 0.0000 0.0604
vn 0.0604 0.0000 0.9982
vn 0.9982 0.0000 -0.0604
vn 0.0000 -1.0000 0.0000
vn 0.0000 1.0000 0.0000
usemtl Material.005
s off
f 17/29/13 19/30/13 20/31/13 18/32/13
f 19/30/14 23/33/14 24/34/14 20/31/14
f 23/33/15 21/35/15 22/36/15 24/34/15
f 21/35/16 17/37/16 18/38/16 22/36/16
f 19/39/17 17/40/17 21/35/17 23/33/17
f 24/34/18 22/36/18 18/41/18 20/42/18
