# Blender v3.1.2 OBJ File: 'char_mega_spike.blend'
# www.blender.org
mtllib superscraper.mtl
o Cube.001
v -1.103355 -0.482609 -0.991359
v -0.957342 1.512054 -0.991359
v -1.103355 -0.482609 1.008641
v -0.957342 1.512054 1.008641
v 0.891308 -0.628621 -0.991359
v 1.037321 1.366041 -0.991359
v 0.891308 -0.628621 1.008641
v 1.037321 1.366041 1.008641
v 1.037321 1.366041 0.008641
v 0.039989 1.439048 -0.991359
v 0.039989 1.439048 1.008641
v -0.957342 1.512054 0.008641
v 0.039989 1.439048 0.008641
v 1.106784 3.357998 0.008641
v 1.106784 3.357998 1.008641
v 0.300069 3.948938 1.008641
v 0.300069 3.948938 0.008641
v -0.794093 4.006403 -0.090234
v -0.794093 3.466414 -0.931906
v 0.203239 3.404967 -0.892484
v 0.203239 3.944956 -0.050812
v 0.538655 1.402544 -0.991359
v 1.037321 1.366041 -0.491359
v 0.039989 1.439048 -0.491359
v 0.538655 1.402544 0.008641
v 0.538655 1.402544 -0.491359
v 0.570951 1.812698 -0.985657
v 1.050784 1.744699 -0.991359
v 1.069617 1.807233 -0.491359
v 0.570951 1.843737 -0.491359
v 0.832839 1.867174 -0.991359
v 1.050784 1.744699 -0.741359
v 0.570951 1.843737 -0.741359
v 0.820284 1.825485 -0.491359
v 0.832839 1.867174 -0.741359
v 1.122266 2.831751 -0.741359
v 1.122266 2.831751 -0.491359
v 0.927791 2.988848 -0.491359
v 0.927791 2.988848 -0.741359
v 0.695617 1.804729 -0.981210
v 0.570951 1.873618 -0.876508
v 0.832839 1.867174 -0.866359
v 0.695617 1.834611 -0.741359
v 0.695617 1.865650 -0.872060
v 0.627380 2.485750 -0.866359
v 0.627380 2.485750 -0.741359
v 0.728466 2.412220 -0.741359
v 0.728466 2.412220 -0.866359
v 0.734313 2.208454 -0.991359
v 0.831207 2.129482 -0.991359
v 0.831207 2.129482 -0.866359
v 0.734313 2.208454 -0.866359
v 0.289322 1.420796 -0.991359
v 0.039989 1.439048 -0.741359
v 0.538655 1.402544 -0.741359
v 0.289322 1.420796 -0.491359
v 0.289322 1.420796 -0.741359
v 0.180856 3.363412 -0.991359
v 0.417439 3.311674 -0.991359
v 0.180856 3.363412 -0.741359
v 0.423975 3.322212 -0.741359
v 0.318272 3.387772 -0.991359
v 0.180856 3.363412 -0.866359
v 0.399642 3.295910 -0.866359
v 0.311737 3.377235 -0.741359
v 0.336069 3.403537 -0.866359
v 0.203557 3.673532 -0.866359
v 0.203557 3.673532 -0.741359
v 0.328224 3.664406 -0.741359
v 0.328224 3.664406 -0.866359
v 0.413989 1.411670 -0.991359
v 0.538655 1.402544 -0.866359
v 0.289322 1.420796 -0.866359
v 0.413989 1.411670 -0.741359
v 0.413989 1.411670 -0.866359
v 0.379320 2.729776 -0.961633
v 0.468294 2.657107 -1.010906
v 0.419947 2.701662 -0.846811
v 0.508920 2.628993 -0.896084
v 1.037321 1.366041 -0.241359
v 0.787988 1.384293 0.008641
v 0.538655 1.402544 -0.241359
v 0.787988 1.384293 -0.491359
v 0.787988 1.384293 -0.241359
v 0.669609 3.135298 -0.232519
v 0.669609 3.245800 -0.008266
v 0.918942 3.229429 -0.000199
v 0.918942 3.118926 -0.224451
v 1.037321 1.366041 -0.116359
v 0.912654 1.375167 0.008641
v 0.787988 1.384293 -0.116359
v 0.912654 1.375167 -0.241359
v 0.912654 1.375167 -0.116359
v 0.991263 2.415837 -0.234602
v 1.115929 2.408044 -0.229852
v 1.115929 2.473101 -0.123116
v 0.991263 2.480893 -0.127865
v -0.956771 1.512012 0.008641
v -0.956771 1.512012 1.008641
v -0.791999 3.762936 0.008641
v -0.791999 3.762936 1.008641
v 0.383915 6.137373 0.008641
v 0.383915 6.031965 0.963753
v -0.612845 6.099187 0.025831
v -0.612845 6.210338 1.008641
v 0.383915 6.248114 0.512888
v -0.612845 6.317817 0.475499
v -0.114465 6.066377 0.041783
v -0.114465 6.064862 0.979524
v -0.114465 6.388670 0.561209
v 0.162522 8.884734 0.008641
v 0.478119 8.497291 0.008641
v 0.478119 8.497291 0.508641
v 0.162522 8.884734 0.508641
vt 0.625000 0.500000
vt 0.875000 0.500000
vt 0.875000 0.750000
vt 0.625000 0.750000
vt 0.375000 0.750000
vt 0.625000 1.000000
vt 0.375000 1.000000
vt 0.375000 0.875000
vt 0.375000 0.000000
vt 0.625000 0.000000
vt 0.625000 0.250000
vt 0.375000 0.250000
vt 0.375000 0.187500
vt 0.375000 0.156250
vt 0.375000 0.140625
vt 0.375000 0.125000
vt 0.250000 0.625000
vt 0.375000 0.625000
vt 0.250000 0.750000
vt 0.375000 0.500000
vt 0.375000 0.375000
vt 0.375000 0.343750
vt 0.375000 0.328125
vt 0.375000 0.312500
vt 0.375000 0.125000
vt 0.375000 0.000000
vt 0.187500 0.562500
vt 0.218750 0.562500
vt 0.250000 0.562500
vt 0.187500 0.625000
vt 0.187500 0.593750
vt 0.250000 0.625000
vt 0.375000 0.625000
vt 0.125000 0.625000
vt 0.250000 0.625000
vt 0.250000 0.750000
vt 0.125000 0.750000
vt 0.125000 0.625000
vt 0.140625 0.625000
vt 0.156250 0.625000
vt 0.250000 0.625000
vt 0.250000 0.625000
vt 0.375000 1.000000
vt 0.375000 0.875000
vt 0.250000 0.500000
vt 0.375000 0.500000
vt 0.250000 0.531250
vt 0.250000 0.500000
vt 0.375000 0.375000
vt 0.156250 0.609375
vt 0.156250 0.593750
vt 0.156250 0.593750
vt 0.156250 0.625000
vt 0.375000 0.312500
vt 0.375000 0.296875
vt 0.375000 0.281250
vt 0.375000 0.250000
vt 0.218750 0.531250
vt 0.156250 0.531250
vt 0.171875 0.531250
vt 0.187500 0.531250
vt 0.187500 0.562500
vt 0.156250 0.562500
vt 0.187500 0.500000
vt 0.187500 0.515625
vt 0.187500 0.531250
vt 0.187500 0.515625
vt 0.187500 0.500000
vt 0.375000 0.218750
vt 0.375000 0.187500
vt 0.156250 0.562500
vt 0.125000 0.562500
vt 0.125000 0.562500
vt 0.375000 0.218750
vt 0.375000 0.187500
vt 0.125000 0.500000
vt 0.156250 0.500000
vt 0.156250 0.515625
vt 0.125000 0.531250
vt 0.171875 0.531250
vt 0.187500 0.531250
vt 0.125000 0.531250
vt 0.156250 0.531250
vt 0.156250 0.562500
vt 0.125000 0.562500
vt 0.171875 0.515625
vt 0.375000 0.296875
vt 0.375000 0.281250
vt 0.171875 0.500000
vt 0.171875 0.515625
vt 0.187500 0.515625
vt 0.156250 0.500000
vt 0.171875 0.500000
vt 0.171875 0.515625
vt 0.156250 0.515625
vt 0.203125 0.531250
vt 0.203125 0.515625
vt 0.218750 0.515625
vt 0.250000 0.531250
vt 0.250000 0.515625
vt 0.250000 0.500000
vt 0.234375 0.531250
vt 0.234375 0.531250
vt 0.250000 0.531250
vt 0.375000 0.375000
vt 0.375000 0.359375
vt 0.375000 0.343750
vt 0.218750 0.531250
vt 0.218750 0.500000
vt 0.218750 0.500000
vt 0.218750 0.515625
vt 0.234375 0.515625
vt 0.234375 0.500000
vt 0.234375 0.515625
vt 0.250000 0.515625
vt 0.203125 0.500000
vt 0.203125 0.515625
vt 0.218750 0.515625
vt 0.203125 0.500000
vt 0.218750 0.500000
vt 0.375000 0.343750
vt 0.375000 0.328125
vt 0.140625 0.609375
vt 0.140625 0.593750
vt 0.125000 0.593750
vt 0.187500 0.593750
vt 0.187500 0.625000
vt 0.125000 0.609375
vt 0.125000 0.609375
vt 0.140625 0.609375
vt 0.125000 0.593750
vt 0.140625 0.593750
vt 0.375000 0.156250
vt 0.375000 0.140625
vt 0.250000 0.750000
vt 0.250000 0.750000
vt 0.375000 0.875000
vt 0.375000 0.875000
vt 0.375000 0.875000
vt 0.375000 0.875000
vt 0.375000 0.875000
vt 0.250000 0.687500
vt 0.250000 0.625000
vt 0.250000 0.625000
vt 0.250000 0.687500
vt 0.250000 0.625000
vt 0.250000 0.687500
vt 0.250000 0.750000
vt 0.250000 0.750000
vt 0.250000 0.750000
vt 0.250000 0.625000
vt 0.250000 0.625000
vt 0.250000 0.687500
vt 0.250000 0.687500
vn -0.0730 -0.9973 0.0000
vn 0.0000 0.0000 1.0000
vn 0.9973 -0.0730 0.0000
vn 0.0730 0.9973 0.0000
vn -0.9973 0.0730 0.0000
vn 0.0000 0.0000 -1.0000
vn 0.9994 -0.0349 0.0000
vn -0.0175 0.0328 0.9993
vn 0.5909 0.8067 0.0000
vn 0.0730 0.8394 -0.5385
vn 0.9971 -0.0730 0.0214
vn 0.0223 0.0385 -0.9990
vn -0.9971 0.0730 -0.0214
vn 0.9972 -0.0730 0.0170
vn -0.0067 0.0084 -0.9999
vn -0.0101 0.9991 0.0415
vn -0.9974 0.0724 -0.0023
vn 0.9988 -0.0460 -0.0159
vn 0.9978 -0.0587 -0.0302
vn 0.4899 0.8718 0.0000
vn 0.6284 0.7779 0.0000
vn -0.9959 0.0882 -0.0177
vn -0.1248 0.9849 0.1196
vn -0.0442 -0.0128 -0.9989
vn 0.0730 0.8709 -0.4861
vn 0.5882 0.8087 0.0000
vn -0.9959 0.0895 0.0103
vn 0.9983 -0.0583 -0.0071
vn 0.0240 0.0118 -0.9996
vn 0.6318 0.7751 0.0000
vn -0.0269 -0.0078 0.9996
vn 1.0000 0.0062 0.0000
vn -0.9943 0.1029 -0.0268
vn 0.9979 -0.0640 -0.0117
vn 0.6791 0.7340 -0.0000
vn 0.7486 0.6631 0.0000
vn -0.2150 0.9755 -0.0462
vn 0.9953 -0.0157 0.0952
vn 0.2190 -0.0158 0.9756
vn 0.6227 0.7819 -0.0289
vn 0.9827 -0.0630 -0.1739
vn -0.9812 0.0802 0.1756
vn -0.2188 0.0162 -0.9756
vn 0.0730 0.8946 -0.4408
vn 0.0166 0.0062 -0.9998
vn -0.0156 0.0081 0.9998
vn -0.9972 0.0730 -0.0170
vn -0.0184 0.0096 0.9998
vn 0.0730 0.8516 -0.5191
vn 0.9971 -0.0730 0.0205
vn -0.9971 0.0730 -0.0205
vn 0.0195 0.0073 -0.9998
vn 0.0214 0.0102 0.9997
vn 0.0164 0.8731 -0.4873
vn 0.9993 -0.0378 -0.0020
vn -0.0088 0.0096 -0.9999
vn -0.9974 0.0722 -0.0040
vn 0.0447 0.9099 0.4124
vn 0.1788 0.8357 0.5192
vn -0.0420 -0.0034 -0.9991
vn 0.7753 0.6316 0.0000
vn 0.0638 0.0070 0.9979
vn 0.9992 -0.0408 0.0045
vn -0.9941 0.1031 -0.0326
usemtl Material.001
s off
f 1/1/1 5/2/1 7/3/1 3/4/1
f 4/5/2 3/4/2 7/6/2 8/7/2 11/8/2
f 8/9/3 7/10/3 5/11/3 6/12/3 23/13/3 80/14/3 89/15/3 9/16/3
f 13/17/4 12/18/4 4/5/4 11/19/4
f 2/20/5 1/1/5 3/4/5 4/5/5 12/18/5
f 6/12/6 5/11/6 1/1/6 2/20/6 10/21/6 53/22/6 71/23/6 22/24/6
f 8/9/7 9/16/7 14/25/7 15/26/7
f 26/27/4 56/28/4 24/29/4 13/17/4 25/30/4 82/31/4
f 12/18/8 13/17/8 21/32/8 18/33/8
f 14/34/9 17/35/9 16/36/9 15/37/9
f 9/38/6 90/39/6 81/40/6 25/30/6 13/17/6 17/35/6 14/34/6
f 17/35/6 13/17/6 98/41/6 100/42/6
f 11/8/2 8/7/2 15/43/2 16/44/2
f 20/45/10 19/46/10 18/33/10 21/32/10
f 13/17/11 24/29/11 54/47/11 10/48/11 20/45/11 21/32/11
f 10/21/12 2/20/12 19/46/12 20/49/12
f 2/20/13 12/18/13 18/33/13 19/46/13
f 81/40/14 91/50/14 84/51/14 88/52/14 87/53/14
f 6/12/15 22/24/15 27/54/15 40/55/15 31/56/15 28/57/15
f 57/58/4 54/47/4 24/29/4 56/28/4
f 35/59/16 43/60/16 33/61/16 30/62/16 34/63/16
f 22/64/17 72/65/17 55/66/17 26/27/17 30/62/17 33/61/17 41/67/17 27/68/17
f 23/13/18 6/12/18 28/57/18 32/69/18 29/70/18
f 26/27/2 83/71/2 23/72/2 29/73/2 34/63/2 30/62/2
f 29/70/19 32/69/19 36/74/19 37/75/19
f 28/76/20 31/77/20 42/78/20 35/59/20 32/79/20
f 33/61/2 43/60/2 47/80/2 46/81/2
f 36/82/21 39/83/21 38/84/21 37/85/21
f 35/59/22 34/63/22 38/84/22 39/83/22
f 34/63/2 29/73/2 37/85/2 38/84/2
f 32/79/6 35/59/6 39/83/6 36/82/6
f 42/78/23 44/86/23 43/60/23 35/59/23
f 31/56/24 40/55/24 49/87/24 50/88/24
f 40/89/25 27/68/25 41/67/25 44/86/25
f 48/90/26 45/91/26 46/81/26 47/80/26
f 41/67/27 33/61/27 46/81/27 45/91/27
f 43/60/28 44/86/28 48/90/28 47/80/28
f 44/86/29 41/67/29 45/91/29 48/90/29
f 50/92/30 49/93/30 52/94/30 51/95/30
f 44/86/31 42/78/31 51/95/31 52/94/31
f 42/78/32 31/77/32 50/92/32 51/95/32
f 40/89/33 44/86/33 52/94/33 49/93/33
f 55/66/4 74/96/4 57/58/4 56/28/4 26/27/4
f 75/97/4 73/98/4 57/58/4 74/96/4
f 10/48/5 54/47/5 60/99/5 63/100/5 58/101/5
f 60/99/2 65/102/2 69/103/2 68/104/2
f 53/22/6 10/21/6 58/105/6 62/106/6 59/107/6
f 54/47/2 57/58/2 61/108/2 65/102/2 60/99/2
f 57/58/34 73/98/34 53/109/34 59/110/34 64/111/34 61/108/34
f 64/111/35 66/112/35 65/102/35 61/108/35
f 59/110/36 62/113/36 66/112/36 64/111/36
f 62/113/37 58/101/37 63/100/37 66/112/37
f 70/114/4 67/115/4 68/104/4 69/103/4
f 63/100/5 60/99/5 68/104/5 67/115/5
f 65/102/38 66/112/38 70/114/38 69/103/38
f 66/112/6 63/100/6 67/115/6 70/114/6
f 72/65/4 75/97/4 74/96/4 55/66/4
f 22/64/4 71/116/4 75/97/4 72/65/4
f 73/98/39 75/97/39 79/117/39 78/118/39
f 77/119/40 76/120/40 78/118/40 79/117/40
f 75/97/41 71/116/41 77/119/41 79/117/41
f 53/109/42 73/98/42 78/118/42 76/120/42
f 71/23/43 53/22/43 76/121/43 77/122/43
f 93/123/4 91/50/4 81/40/4 90/39/4
f 23/72/4 83/71/4 84/51/4 92/124/4 80/125/4
f 83/71/4 26/27/4 82/31/4 84/51/4
f 88/52/44 85/126/44 86/127/44 87/53/44
f 84/51/45 82/31/45 85/126/45 88/52/45
f 25/30/46 81/40/46 87/53/46 86/127/46
f 82/31/47 25/30/47 86/127/47 85/126/47
f 89/128/4 93/123/4 90/39/4 9/38/4
f 93/123/48 89/128/48 96/129/48 97/130/48
f 92/124/4 84/51/4 91/50/4 93/123/4
f 95/131/49 94/132/49 97/130/49 96/129/49
f 89/15/50 80/14/50 95/133/50 96/134/50
f 92/124/51 93/123/51 97/130/51 94/132/51
f 80/125/52 92/124/52 94/132/52 95/131/52
f 98/41/5 99/135/5 101/136/5 100/42/5
f 101/137/53 16/44/53 103/138/53 109/139/53 105/140/53
f 13/17/1 11/19/1 99/135/1 98/41/1
f 11/8/2 16/44/2 101/137/2 99/141/2
f 110/142/54 108/143/54 104/144/54 107/145/54
f 16/36/55 17/35/55 102/146/55 106/147/55 103/148/55
f 17/35/56 100/42/56 104/144/56 108/143/56 102/146/56
f 100/42/57 101/136/57 105/149/57 107/145/57 104/144/57
f 109/150/58 110/142/58 107/145/58 105/149/58
f 103/148/59 106/147/59 110/142/59 109/150/59
f 102/146/60 108/143/60 111/151/60 112/152/60
f 113/153/61 112/152/61 111/151/61 114/154/61
f 110/142/62 106/147/62 113/153/62 114/154/62
f 106/147/63 102/146/63 112/152/63 113/153/63
f 108/143/64 110/142/64 114/154/64 111/151/64
