# Blender v3.1.2 OBJ File: 'char_mega_spike.blend'
# www.blender.org
mtllib vista_crystal_small.mtl
o Icosphere
v 0.268523 -2.101172 -0.295488
v 0.362745 -0.933125 0.041563
v 0.030062 -0.990026 0.139830
v -0.178209 -0.977349 -0.128525
v 0.025761 -0.912628 -0.392646
v 0.360087 -0.885290 -0.287522
v -0.025761 0.912628 0.416844
v -0.360087 0.885290 0.311720
v -0.362745 0.933125 -0.017365
v -0.030062 0.990026 -0.115632
v 0.178209 0.977349 0.152724
v -0.268523 2.101172 0.319687
v 0.175504 -1.816960 -0.093619
v 0.371049 -1.783514 -0.151378
v 0.230886 -1.130398 0.104496
v 0.424868 -1.068833 -0.146694
v 0.369486 -1.755398 -0.344808
v 0.053085 -1.809509 -0.251353
v -0.087079 -1.156395 0.004520
v 0.172976 -1.771467 -0.406598
v -0.089607 -1.110901 -0.308460
v 0.226796 -1.056788 -0.401916
v 0.317965 0.025999 0.112075
v 0.316402 0.054116 -0.081356
v 0.002528 -0.045494 0.325081
v 0.198075 -0.012048 0.267322
v -0.316402 -0.054116 0.105554
v -0.193985 -0.061562 0.263292
v -0.198075 0.012048 -0.243124
v -0.317965 -0.025999 -0.087877
v 0.193985 0.061562 -0.239093
v -0.002528 0.045494 -0.300883
v 0.089607 1.110901 0.332659
v -0.226796 1.056788 0.426115
v -0.424868 1.068833 0.170893
v -0.230886 1.130398 -0.080298
v 0.087079 1.156395 0.019679
v -0.172976 1.771467 0.430797
v -0.053085 1.809509 0.275552
v -0.369486 1.755398 0.369007
v -0.371049 1.783514 0.175577
v -0.175504 1.816960 0.117818
v -0.327531 -1.273684 0.012099
v 0.066220 -0.615699 0.111227
v -0.096034 -0.552015 0.172493
v -0.196312 -0.512651 0.012099
v -0.096034 -0.552015 -0.148294
v 0.066220 -0.615699 -0.087028
v 0.440798 0.552015 0.172493
v 0.278544 0.615699 0.111227
v 0.278544 0.615699 -0.087028
v 0.440798 0.552015 -0.148294
v 0.541076 0.512651 0.012099
v 0.672295 1.273684 0.012099
v -0.303708 -1.063511 0.170238
v -0.119774 -1.135704 0.109834
v -0.047789 -0.686364 0.164642
v 0.047582 -0.723794 0.012099
v -0.119774 -1.135704 -0.085635
v -0.417387 -1.018889 0.012099
v -0.202102 -0.625795 0.106376
v -0.303708 -1.063511 -0.146040
v -0.202102 -0.625795 -0.082177
v -0.047789 -0.686364 -0.140443
v 0.326696 -0.060567 0.070365
v 0.326696 -0.060567 -0.046166
v 0.172382 -0.000000 0.200653
v 0.267753 -0.037433 0.164643
v 0.018069 0.060567 0.070365
v 0.077011 0.037432 0.164643
v 0.077011 0.037432 -0.140444
v 0.018069 0.060567 -0.046166
v 0.267753 -0.037433 -0.140444
v 0.172382 -0.000000 -0.176455
v 0.546867 0.625795 0.106376
v 0.392554 0.686364 0.164642
v 0.297183 0.723794 0.012099
v 0.392554 0.686364 -0.140443
v 0.546867 0.625795 -0.082177
v 0.648473 1.063511 0.170238
v 0.762151 1.018889 0.012099
v 0.464538 1.135704 0.109834
v 0.464538 1.135704 -0.085635
v 0.648473 1.063511 -0.146040
v 0.125884 -1.705265 0.530810
v 0.031816 -0.811442 0.035474
v 0.153223 -0.743983 0.171688
v 0.044554 -0.702284 0.330434
v -0.144013 -0.743984 0.292332
v -0.151884 -0.811442 0.110035
v -0.107653 0.743983 -0.471048
v -0.099782 0.811442 -0.288751
v -0.283482 0.811442 -0.214190
v -0.404890 0.743983 -0.350404
v -0.296220 0.702284 -0.509149
v -0.377550 1.705265 -0.709526
v 0.255073 -1.429454 0.428615
v 0.125827 -1.505927 0.270797
v 0.130856 -0.914255 0.137455
v -0.048482 -0.953903 0.101216
v -0.055292 -1.505927 0.344310
v 0.153831 -1.382186 0.599666
v 0.138343 -0.850095 0.310829
v -0.037985 -1.429454 0.547563
v -0.036367 -0.850095 0.381741
v -0.151831 -0.914255 0.252194
v -0.133321 -0.064158 -0.262732
v -0.241297 -0.064158 -0.218907
v 0.048878 -0.000000 -0.160271
v -0.022483 -0.039652 -0.240336
v -0.010369 0.064158 0.040191
v 0.053505 0.039652 -0.053119
v -0.229183 0.039652 0.061620
v -0.118345 0.064158 0.084016
v -0.305172 -0.039652 -0.125597
v -0.300544 -0.000000 -0.018445
v -0.215299 0.850095 -0.560457
v -0.099835 0.914255 -0.430909
v -0.203184 0.953903 -0.279932
v -0.382522 0.914255 -0.316171
v -0.390009 0.850095 -0.489545
v -0.213681 1.429454 -0.726278
v -0.405497 1.382186 -0.778382
v -0.196374 1.505927 -0.523026
v -0.377493 1.505927 -0.449513
v -0.506739 1.429454 -0.607330
vt 0.181819 0.000000
vt 0.227273 0.078731
vt 0.136365 0.078731
vt 0.272728 0.157461
vt 0.318182 0.078731
vt 0.363637 0.157461
vt 0.909091 0.000000
vt 0.954545 0.078731
vt 0.863636 0.078731
vt 0.727273 0.000000
vt 0.772727 0.078731
vt 0.681818 0.078731
vt 0.545455 0.000000
vt 0.590909 0.078731
vt 0.500000 0.078731
vt 0.318182 0.236191
vt 0.090910 0.157461
vt 0.181819 0.157461
vt 0.136365 0.236191
vt 0.818182 0.157461
vt 0.909091 0.157461
vt 0.863636 0.236191
vt 0.636364 0.157461
vt 0.727273 0.157461
vt 0.681818 0.236191
vt 0.454546 0.157461
vt 0.545455 0.157461
vt 0.500000 0.236191
vt 0.227273 0.236191
vt 0.045455 0.236191
vt 0.772727 0.236191
vt 0.590909 0.236191
vt 0.409092 0.236191
vt 0.181819 0.314921
vt 0.272728 0.314921
vt 0.227273 0.393651
vt 0.000000 0.314921
vt 0.090910 0.314921
vt 0.045455 0.393651
vt 0.727273 0.314921
vt 0.818182 0.314921
vt 0.772727 0.393651
vt 0.545455 0.314921
vt 0.636364 0.314921
vt 0.590909 0.393651
vt 0.363637 0.314921
vt 0.454546 0.314921
vt 0.409092 0.393651
vt 0.500000 0.393651
vt 0.454546 0.472382
vt 0.681818 0.393651
vt 0.636364 0.472382
vt 0.863636 0.393651
vt 0.818182 0.472382
vt 0.909091 0.314921
vt 0.136365 0.393651
vt 0.090910 0.472382
vt 0.318182 0.393651
vt 0.272728 0.472382
vt 0.954545 0.236191
vt 1.000000 0.157461
vt 0.409092 0.078731
vt 0.363637 0.000000
vt 0.181819 0.000000
vt 0.227273 0.078731
vt 0.136365 0.078731
vt 0.272728 0.157461
vt 0.318182 0.078731
vt 0.363637 0.157461
vt 0.909091 0.000000
vt 0.954545 0.078731
vt 0.863636 0.078731
vt 0.727273 0.000000
vt 0.772727 0.078731
vt 0.681818 0.078731
vt 0.545455 0.000000
vt 0.590909 0.078731
vt 0.500000 0.078731
vt 0.318182 0.236191
vt 0.090910 0.157461
vt 0.181819 0.157461
vt 0.136365 0.236191
vt 0.818182 0.157461
vt 0.909091 0.157461
vt 0.863636 0.236191
vt 0.636364 0.157461
vt 0.727273 0.157461
vt 0.681818 0.236191
vt 0.454546 0.157461
vt 0.545455 0.157461
vt 0.500000 0.236191
vt 0.227273 0.236191
vt 0.045455 0.236191
vt 0.772727 0.236191
vt 0.590909 0.236191
vt 0.409092 0.236191
vt 0.181819 0.314921
vt 0.272728 0.314921
vt 0.227273 0.393651
vt 0.000000 0.314921
vt 0.090910 0.314921
vt 0.045455 0.393651
vt 0.727273 0.314921
vt 0.818182 0.314921
vt 0.772727 0.393651
vt 0.545455 0.314921
vt 0.636364 0.314921
vt 0.590909 0.393651
vt 0.363637 0.314921
vt 0.454546 0.314921
vt 0.409092 0.393651
vt 0.500000 0.393651
vt 0.454546 0.472382
vt 0.681818 0.393651
vt 0.636364 0.472382
vt 0.863636 0.393651
vt 0.818182 0.472382
vt 0.909091 0.314921
vt 0.136365 0.393651
vt 0.090910 0.472382
vt 0.318182 0.393651
vt 0.272728 0.472382
vt 0.954545 0.236191
vt 1.000000 0.157461
vt 0.409092 0.078731
vt 0.363637 0.000000
vt 0.181819 0.000000
vt 0.227273 0.078731
vt 0.136365 0.078731
vt 0.272728 0.157461
vt 0.318182 0.078731
vt 0.363637 0.157461
vt 0.909091 0.000000
vt 0.954545 0.078731
vt 0.863636 0.078731
vt 0.727273 0.000000
vt 0.772727 0.078731
vt 0.681818 0.078731
vt 0.545455 0.000000
vt 0.590909 0.078731
vt 0.500000 0.078731
vt 0.318182 0.236191
vt 0.090910 0.157461
vt 0.181819 0.157461
vt 0.136365 0.236191
vt 0.818182 0.157461
vt 0.909091 0.157461
vt 0.863636 0.236191
vt 0.636364 0.157461
vt 0.727273 0.157461
vt 0.681818 0.236191
vt 0.454546 0.157461
vt 0.545455 0.157461
vt 0.500000 0.236191
vt 0.227273 0.236191
vt 0.045455 0.236191
vt 0.772727 0.236191
vt 0.590909 0.236191
vt 0.409092 0.236191
vt 0.181819 0.314921
vt 0.272728 0.314921
vt 0.227273 0.393651
vt 0.000000 0.314921
vt 0.090910 0.314921
vt 0.045455 0.393651
vt 0.727273 0.314921
vt 0.818182 0.314921
vt 0.772727 0.393651
vt 0.545455 0.314921
vt 0.636364 0.314921
vt 0.590909 0.393651
vt 0.363637 0.314921
vt 0.454546 0.314921
vt 0.409092 0.393651
vt 0.500000 0.393651
vt 0.454546 0.472382
vt 0.681818 0.393651
vt 0.636364 0.472382
vt 0.863636 0.393651
vt 0.818182 0.472382
vt 0.909091 0.314921
vt 0.136365 0.393651
vt 0.090910 0.472382
vt 0.318182 0.393651
vt 0.272728 0.472382
vt 0.954545 0.236191
vt 1.000000 0.157461
vt 0.409092 0.078731
vt 0.363637 0.000000
vn 0.3230 -0.4755 0.8183
vn 0.9304 -0.0724 0.3592
vn -0.6646 -0.5649 0.4891
vn -0.6735 -0.4038 -0.6191
vn 0.3089 -0.2221 -0.9248
vn 0.9541 0.0226 0.2986
vn 0.0389 -0.1912 0.9808
vn -0.9174 -0.2212 0.3307
vn -0.5798 -0.0086 -0.8147
vn 0.5378 0.1369 -0.8319
vn 0.7924 -0.0078 0.6100
vn -0.2800 -0.1926 0.9405
vn -0.9894 -0.1448 -0.0131
vn -0.2953 0.0824 -0.9519
vn 0.7826 0.1679 -0.5994
vn 0.5038 0.0724 0.8608
vn -0.6055 -0.0588 0.7937
vn -0.9304 0.0724 -0.3592
vn 0.0234 0.2754 -0.9610
vn 0.9256 0.2927 -0.2401
vn 0.6646 0.5649 -0.4891
vn 0.7403 0.3770 -0.5567
vn 0.4903 0.3156 -0.8124
vn -0.3230 0.4755 -0.8183
vn -0.3161 0.2865 -0.9044
vn -0.6181 0.1682 -0.7679
vn -0.9568 0.2864 0.0494
vn -0.9970 0.0750 0.0189
vn -0.9245 -0.0350 0.3797
vn -0.3089 0.2221 0.9248
vn -0.3011 0.0164 0.9534
vn 0.0393 -0.0095 0.9992
vn 0.6735 0.4038 0.6191
vn 0.7498 0.2046 0.6292
vn 0.9299 0.2144 0.2988
vn 0.9174 0.2212 -0.3307
vn 0.7763 0.2158 -0.5923
vn 0.5668 0.2415 -0.7877
vn -0.0389 0.1912 -0.9808
vn -0.3011 0.1287 -0.9449
vn -0.5512 0.1044 -0.8278
vn -0.9541 -0.0226 -0.2986
vn -0.9954 -0.0958 -0.0059
vn -0.9493 -0.1089 0.2948
vn -0.5378 -0.1369 0.8319
vn -0.2858 -0.1463 0.9471
vn -0.0229 -0.0960 0.9951
vn 0.5798 0.0086 0.8147
vn 0.7861 0.0400 0.6168
vn 0.9231 0.1200 0.3655
vn 0.2800 0.1926 -0.9405
vn 0.2858 0.1463 -0.9471
vn 0.0229 0.0960 -0.9951
vn -0.7924 0.0078 -0.6100
vn -0.7861 -0.0400 -0.6168
vn -0.9231 -0.1200 -0.3655
vn -0.7826 -0.1679 0.5994
vn -0.7763 -0.2158 0.5923
vn -0.5668 -0.2415 0.7877
vn 0.2953 -0.0824 0.9519
vn 0.3011 -0.1287 0.9449
vn 0.5512 -0.1044 0.8278
vn 0.9894 0.1448 0.0131
vn 0.9954 0.0958 0.0059
vn 0.9493 0.1089 -0.2948
vn 0.6055 0.0588 -0.7937
vn 0.3011 -0.0164 -0.9534
vn -0.0393 0.0095 -0.9992
vn -0.5038 -0.0724 -0.8608
vn -0.7498 -0.2046 -0.6292
vn -0.9299 -0.2144 -0.2988
vn -0.9256 -0.2927 0.2401
vn -0.7403 -0.3770 0.5567
vn -0.4903 -0.3156 0.8124
vn 0.9245 0.0350 -0.3797
vn 0.9970 -0.0750 -0.0189
vn 0.9568 -0.2864 -0.0494
vn -0.0234 -0.2754 0.9610
vn 0.3161 -0.2865 0.9044
vn 0.6181 -0.1682 0.7679
vn 0.0253 -0.6029 0.7974
vn 0.9247 -0.3313 0.1874
vn -0.8143 -0.2872 0.5044
vn -0.8143 -0.2872 -0.5044
vn 0.0253 -0.6029 -0.7974
vn 0.8806 -0.3937 0.2638
vn 0.0088 -0.0552 0.9984
vn -0.9002 0.3051 0.3108
vn -0.6110 0.1896 -0.7686
vn 0.5376 -0.2614 -0.8016
vn 0.7666 -0.3187 0.5575
vn -0.3149 0.1050 0.9433
vn -0.9366 0.3503 0.0000
vn -0.3149 0.1050 -0.9433
vn 0.7666 -0.3187 -0.5575
vn 0.6326 -0.2536 0.7318
vn -0.5082 0.1840 0.8413
vn -0.9247 0.3313 -0.1874
vn -0.0704 0.0330 -0.9970
vn 0.8437 -0.3685 -0.3904
vn 0.8143 0.2872 -0.5044
vn 0.7469 -0.2625 -0.6110
vn 0.6326 -0.2536 -0.7318
vn -0.0253 0.6029 -0.7974
vn -0.2520 0.1569 -0.9549
vn -0.5082 0.1840 -0.8413
vn -0.5532 0.8330 0.0000
vn -0.9265 0.3764 0.0000
vn -0.9247 0.3313 0.1874
vn -0.0253 0.6029 0.7974
vn -0.2520 0.1569 0.9549
vn -0.0704 0.0330 0.9970
vn 0.8143 0.2872 0.5044
vn 0.7469 -0.2625 0.6110
vn 0.8437 -0.3685 0.3904
vn 0.9002 -0.3051 -0.3108
vn 0.7816 -0.2800 -0.5574
vn 0.6110 -0.1896 -0.7686
vn -0.0088 0.0552 -0.9984
vn -0.2990 0.1454 -0.9431
vn -0.5376 0.2614 -0.8016
vn -0.8806 0.3937 -0.2638
vn -0.9217 0.3879 0.0000
vn -0.8806 0.3937 0.2638
vn -0.5376 0.2614 0.8016
vn -0.2990 0.1454 0.9431
vn -0.0088 0.0552 0.9984
vn 0.6110 -0.1896 0.7686
vn 0.7816 -0.2800 0.5574
vn 0.9002 -0.3051 0.3108
vn 0.3149 -0.1050 -0.9433
vn 0.2990 -0.1454 -0.9431
vn 0.0088 -0.0552 -0.9984
vn -0.7666 0.3187 -0.5575
vn -0.7816 0.2800 -0.5574
vn -0.9002 0.3051 -0.3108
vn -0.7666 0.3187 0.5575
vn -0.7816 0.2800 0.5574
vn -0.6110 0.1896 0.7686
vn 0.3149 -0.1050 0.9433
vn 0.2990 -0.1454 0.9431
vn 0.5376 -0.2614 0.8016
vn 0.9366 -0.3503 0.0000
vn 0.9217 -0.3879 0.0000
vn 0.8806 -0.3937 -0.2638
vn 0.5082 -0.1840 -0.8413
vn 0.2520 -0.1569 -0.9549
vn 0.0704 -0.0330 -0.9970
vn -0.6326 0.2536 -0.7318
vn -0.7469 0.2625 -0.6110
vn -0.8437 0.3685 -0.3904
vn -0.8437 0.3685 0.3904
vn -0.7469 0.2625 0.6110
vn -0.6326 0.2536 0.7318
vn 0.9247 -0.3313 -0.1874
vn 0.9265 -0.3764 -0.0000
vn 0.5532 -0.8330 0.0000
vn 0.0704 -0.0330 0.9970
vn 0.2520 -0.1569 0.9549
vn 0.5082 -0.1840 0.8413
vn 0.7715 -0.5048 -0.3872
vn -0.1627 -0.3363 -0.9276
vn 0.8222 -0.1858 0.5380
vn -0.2147 -0.1858 0.9589
vn -0.8231 -0.5048 0.2600
vn -0.0732 -0.3836 -0.9206
vn 0.9212 -0.0433 -0.3866
vn 0.6388 0.3121 0.7032
vn -0.5081 0.1920 0.8396
vn -0.9540 -0.2430 -0.1754
vn 0.2536 -0.3096 -0.9164
vn 0.9914 0.1029 -0.0809
vn 0.3518 0.3534 0.8668
vn -0.7673 0.1029 0.6329
vn -0.8206 -0.3096 -0.4804
vn 0.4653 -0.2448 -0.8507
vn 0.9753 0.1793 0.1293
vn 0.1627 0.3363 0.9276
vn -0.8989 0.0302 0.4370
vn -0.6952 -0.3585 -0.6231
vn -0.8222 0.1858 -0.5380
vn -0.8605 -0.2622 -0.4368
vn -0.9265 -0.2448 -0.2858
vn -0.7715 0.5048 0.3872
vn -0.7981 0.1389 0.5863
vn -0.6093 0.1793 0.7724
vn 0.2397 0.7705 0.5906
vn 0.3488 0.3741 0.8593
vn 0.5298 0.3363 0.7786
vn 0.8231 0.5048 -0.2600
vn 0.9810 0.1389 -0.1358
vn 0.9492 0.0302 -0.3131
vn 0.2147 0.1858 -0.9589
vn 0.3126 -0.2622 -0.9130
vn 0.0643 -0.3585 -0.9313
vn -0.6388 -0.3121 -0.7032
vn -0.8249 -0.2796 -0.4913
vn -0.9496 -0.1920 -0.2479
vn -0.9212 0.0433 0.3866
vn -0.7717 0.1333 0.6218
vn -0.5619 0.2430 0.7907
vn 0.0732 0.3836 0.9206
vn 0.3474 0.3832 0.8559
vn 0.5891 0.3836 0.7112
vn 0.9540 0.2430 0.1754
vn 0.9868 0.1333 -0.0919
vn 0.9301 0.0433 -0.3648
vn 0.5081 -0.1920 -0.8396
vn 0.2492 -0.2796 -0.9272
vn -0.0320 -0.3121 -0.9495
vn -0.9914 -0.1029 0.0809
vn -0.9868 -0.1333 0.0919
vn -0.9301 -0.0433 0.3648
vn -0.2536 0.3096 0.9164
vn -0.2492 0.2796 0.9272
vn 0.0320 0.3121 0.9495
vn 0.8206 0.3096 0.4804
vn 0.8249 0.2796 0.4913
vn 0.9496 0.1920 0.2479
vn 0.7673 -0.1029 -0.6329
vn 0.7717 -0.1333 -0.6218
vn 0.5619 -0.2430 -0.7907
vn -0.3518 -0.3534 -0.8668
vn -0.3474 -0.3832 -0.8559
vn -0.5891 -0.3836 -0.7112
vn -0.9753 -0.1793 -0.1293
vn -0.9810 -0.1389 0.1358
vn -0.9492 -0.0302 0.3131
vn -0.4653 0.2448 0.8507
vn -0.3126 0.2622 0.9130
vn -0.0643 0.3585 0.9313
vn 0.6952 0.3585 0.6231
vn 0.8605 0.2622 0.4368
vn 0.9265 0.2448 0.2858
vn -0.5298 -0.3363 -0.7786
vn -0.3488 -0.3741 -0.8593
vn -0.2397 -0.7705 -0.5906
vn 0.8989 -0.0302 -0.4370
vn 0.7981 -0.1389 -0.5863
vn 0.6093 -0.1793 -0.7724
usemtl Material.001
s off
f 1/1/1 14/2/1 13/3/1
f 2/4/2 14/5/2 16/6/2
f 1/7/3 13/8/3 18/9/3
f 1/10/4 18/11/4 20/12/4
f 1/13/5 20/14/5 17/15/5
f 2/4/6 16/6/6 23/16/6
f 3/17/7 15/18/7 25/19/7
f 4/20/8 19/21/8 27/22/8
f 5/23/9 21/24/9 29/25/9
f 6/26/10 22/27/10 31/28/10
f 2/4/11 23/16/11 26/29/11
f 3/17/12 25/19/12 28/30/12
f 4/20/13 27/22/13 30/31/13
f 5/23/14 29/25/14 32/32/14
f 6/26/15 31/28/15 24/33/15
f 7/34/16 33/35/16 38/36/16
f 8/37/17 34/38/17 40/39/17
f 9/40/18 35/41/18 41/42/18
f 10/43/19 36/44/19 42/45/19
f 11/46/20 37/47/20 39/48/20
f 39/48/21 42/49/21 12/50/21
f 39/48/22 37/47/22 42/49/22
f 37/47/23 10/43/23 42/49/23
f 42/45/24 41/51/24 12/52/24
f 42/45/25 36/44/25 41/51/25
f 36/44/26 9/40/26 41/51/26
f 41/42/27 40/53/27 12/54/27
f 41/42/28 35/41/28 40/53/28
f 35/41/29 8/55/29 40/53/29
f 40/39/30 38/56/30 12/57/30
f 40/39/31 34/38/31 38/56/31
f 34/38/32 7/34/32 38/56/32
f 38/36/33 39/58/33 12/59/33
f 38/36/34 33/35/34 39/58/34
f 33/35/35 11/46/35 39/58/35
f 24/33/36 37/47/36 11/46/36
f 24/33/37 31/28/37 37/47/37
f 31/28/38 10/43/38 37/47/38
f 32/32/39 36/44/39 10/43/39
f 32/32/40 29/25/40 36/44/40
f 29/25/41 9/40/41 36/44/41
f 30/31/42 35/41/42 9/40/42
f 30/31/43 27/22/43 35/41/43
f 27/22/44 8/55/44 35/41/44
f 28/30/45 34/38/45 8/37/45
f 28/30/46 25/19/46 34/38/46
f 25/19/47 7/34/47 34/38/47
f 26/29/48 33/35/48 7/34/48
f 26/29/49 23/16/49 33/35/49
f 23/16/50 11/46/50 33/35/50
f 31/28/51 32/32/51 10/43/51
f 31/28/52 22/27/52 32/32/52
f 22/27/53 5/23/53 32/32/53
f 29/25/54 30/31/54 9/40/54
f 29/25/55 21/24/55 30/31/55
f 21/24/56 4/20/56 30/31/56
f 27/22/57 28/60/57 8/55/57
f 27/22/58 19/21/58 28/60/58
f 19/21/59 3/61/59 28/60/59
f 25/19/60 26/29/60 7/34/60
f 25/19/61 15/18/61 26/29/61
f 15/18/62 2/4/62 26/29/62
f 23/16/63 24/33/63 11/46/63
f 23/16/64 16/6/64 24/33/64
f 16/6/65 6/26/65 24/33/65
f 17/15/66 22/27/66 6/26/66
f 17/15/67 20/14/67 22/27/67
f 20/14/68 5/23/68 22/27/68
f 20/12/69 21/24/69 5/23/69
f 20/12/70 18/11/70 21/24/70
f 18/11/71 4/20/71 21/24/71
f 18/9/72 19/21/72 4/20/72
f 18/9/73 13/8/73 19/21/73
f 13/8/74 3/61/74 19/21/74
f 16/6/75 17/62/75 6/26/75
f 16/6/76 14/5/76 17/62/76
f 14/5/77 1/63/77 17/62/77
f 13/3/78 15/18/78 3/17/78
f 13/3/79 14/2/79 15/18/79
f 14/2/80 2/4/80 15/18/80
usemtl Material.002
f 43/64/81 56/65/81 55/66/81
f 44/67/82 56/68/82 58/69/82
f 43/70/83 55/71/83 60/72/83
f 43/73/84 60/74/84 62/75/84
f 43/76/85 62/77/85 59/78/85
f 44/67/86 58/69/86 65/79/86
f 45/80/87 57/81/87 67/82/87
f 46/83/88 61/84/88 69/85/88
f 47/86/89 63/87/89 71/88/89
f 48/89/90 64/90/90 73/91/90
f 44/67/91 65/79/91 68/92/91
f 45/80/92 67/82/92 70/93/92
f 46/83/93 69/85/93 72/94/93
f 47/86/94 71/88/94 74/95/94
f 48/89/95 73/91/95 66/96/95
f 49/97/96 75/98/96 80/99/96
f 50/100/97 76/101/97 82/102/97
f 51/103/98 77/104/98 83/105/98
f 52/106/99 78/107/99 84/108/99
f 53/109/100 79/110/100 81/111/100
f 81/111/101 84/112/101 54/113/101
f 81/111/102 79/110/102 84/112/102
f 79/110/103 52/106/103 84/112/103
f 84/108/104 83/114/104 54/115/104
f 84/108/105 78/107/105 83/114/105
f 78/107/106 51/103/106 83/114/106
f 83/105/107 82/116/107 54/117/107
f 83/105/108 77/104/108 82/116/108
f 77/104/109 50/118/109 82/116/109
f 82/102/110 80/119/110 54/120/110
f 82/102/111 76/101/111 80/119/111
f 76/101/112 49/97/112 80/119/112
f 80/99/113 81/121/113 54/122/113
f 80/99/114 75/98/114 81/121/114
f 75/98/115 53/109/115 81/121/115
f 66/96/116 79/110/116 53/109/116
f 66/96/117 73/91/117 79/110/117
f 73/91/118 52/106/118 79/110/118
f 74/95/119 78/107/119 52/106/119
f 74/95/120 71/88/120 78/107/120
f 71/88/121 51/103/121 78/107/121
f 72/94/122 77/104/122 51/103/122
f 72/94/123 69/85/123 77/104/123
f 69/85/124 50/118/124 77/104/124
f 70/93/125 76/101/125 50/100/125
f 70/93/126 67/82/126 76/101/126
f 67/82/127 49/97/127 76/101/127
f 68/92/128 75/98/128 49/97/128
f 68/92/129 65/79/129 75/98/129
f 65/79/130 53/109/130 75/98/130
f 73/91/131 74/95/131 52/106/131
f 73/91/132 64/90/132 74/95/132
f 64/90/133 47/86/133 74/95/133
f 71/88/134 72/94/134 51/103/134
f 71/88/135 63/87/135 72/94/135
f 63/87/136 46/83/136 72/94/136
f 69/85/137 70/123/137 50/118/137
f 69/85/138 61/84/138 70/123/138
f 61/84/139 45/124/139 70/123/139
f 67/82/140 68/92/140 49/97/140
f 67/82/141 57/81/141 68/92/141
f 57/81/142 44/67/142 68/92/142
f 65/79/143 66/96/143 53/109/143
f 65/79/144 58/69/144 66/96/144
f 58/69/145 48/89/145 66/96/145
f 59/78/146 64/90/146 48/89/146
f 59/78/147 62/77/147 64/90/147
f 62/77/148 47/86/148 64/90/148
f 62/75/149 63/87/149 47/86/149
f 62/75/150 60/74/150 63/87/150
f 60/74/151 46/83/151 63/87/151
f 60/72/152 61/84/152 46/83/152
f 60/72/153 55/71/153 61/84/153
f 55/71/154 45/124/154 61/84/154
f 58/69/155 59/125/155 48/89/155
f 58/69/156 56/68/156 59/125/156
f 56/68/157 43/126/157 59/125/157
f 55/66/158 57/81/158 45/80/158
f 55/66/159 56/65/159 57/81/159
f 56/65/160 44/67/160 57/81/160
usemtl Material.004
f 85/127/161 98/128/161 97/129/161
f 86/130/162 98/131/162 100/132/162
f 85/133/163 97/134/163 102/135/163
f 85/136/164 102/137/164 104/138/164
f 85/139/165 104/140/165 101/141/165
f 86/130/166 100/132/166 107/142/166
f 87/143/167 99/144/167 109/145/167
f 88/146/168 103/147/168 111/148/168
f 89/149/169 105/150/169 113/151/169
f 90/152/170 106/153/170 115/154/170
f 86/130/171 107/142/171 110/155/171
f 87/143/172 109/145/172 112/156/172
f 88/146/173 111/148/173 114/157/173
f 89/149/174 113/151/174 116/158/174
f 90/152/175 115/154/175 108/159/175
f 91/160/176 117/161/176 122/162/176
f 92/163/177 118/164/177 124/165/177
f 93/166/178 119/167/178 125/168/178
f 94/169/179 120/170/179 126/171/179
f 95/172/180 121/173/180 123/174/180
f 123/174/181 126/175/181 96/176/181
f 123/174/182 121/173/182 126/175/182
f 121/173/183 94/169/183 126/175/183
f 126/171/184 125/177/184 96/178/184
f 126/171/185 120/170/185 125/177/185
f 120/170/186 93/166/186 125/177/186
f 125/168/187 124/179/187 96/180/187
f 125/168/188 119/167/188 124/179/188
f 119/167/189 92/181/189 124/179/189
f 124/165/190 122/182/190 96/183/190
f 124/165/191 118/164/191 122/182/191
f 118/164/192 91/160/192 122/182/192
f 122/162/193 123/184/193 96/185/193
f 122/162/194 117/161/194 123/184/194
f 117/161/195 95/172/195 123/184/195
f 108/159/196 121/173/196 95/172/196
f 108/159/197 115/154/197 121/173/197
f 115/154/198 94/169/198 121/173/198
f 116/158/199 120/170/199 94/169/199
f 116/158/200 113/151/200 120/170/200
f 113/151/201 93/166/201 120/170/201
f 114/157/202 119/167/202 93/166/202
f 114/157/203 111/148/203 119/167/203
f 111/148/204 92/181/204 119/167/204
f 112/156/205 118/164/205 92/163/205
f 112/156/206 109/145/206 118/164/206
f 109/145/207 91/160/207 118/164/207
f 110/155/208 117/161/208 91/160/208
f 110/155/209 107/142/209 117/161/209
f 107/142/210 95/172/210 117/161/210
f 115/154/211 116/158/211 94/169/211
f 115/154/212 106/153/212 116/158/212
f 106/153/213 89/149/213 116/158/213
f 113/151/214 114/157/214 93/166/214
f 113/151/215 105/150/215 114/157/215
f 105/150/216 88/146/216 114/157/216
f 111/148/217 112/186/217 92/181/217
f 111/148/218 103/147/218 112/186/218
f 103/147/219 87/187/219 112/186/219
f 109/145/220 110/155/220 91/160/220
f 109/145/221 99/144/221 110/155/221
f 99/144/222 86/130/222 110/155/222
f 107/142/223 108/159/223 95/172/223
f 107/142/224 100/132/224 108/159/224
f 100/132/225 90/152/225 108/159/225
f 101/141/226 106/153/226 90/152/226
f 101/141/227 104/140/227 106/153/227
f 104/140/228 89/149/228 106/153/228
f 104/138/229 105/150/229 89/149/229
f 104/138/230 102/137/230 105/150/230
f 102/137/231 88/146/231 105/150/231
f 102/135/232 103/147/232 88/146/232
f 102/135/233 97/134/233 103/147/233
f 97/134/234 87/187/234 103/147/234
f 100/132/235 101/188/235 90/152/235
f 100/132/236 98/131/236 101/188/236
f 98/131/237 85/189/237 101/188/237
f 97/129/238 99/144/238 87/143/238
f 97/129/239 98/128/239 99/144/239
f 98/128/240 86/130/240 99/144/240
